<svg width="32" height="10" viewBox="0 0 32 10" fill="none" xmlns="http://www.w3.org/2000/svg">
<path d="M5.06953 1.41538C4.53197 0.877819 3.79035 0.54541 2.96975 0.54541C2.14915 0.54541 1.40753 0.877819 0.869971 1.41538C0.33241 1.95294 0 2.69456 0 3.51516C0 4.33576 0.33241 5.07738 0.869971 5.61494C1.40753 6.1525 2.14915 6.48491 2.96975 6.48491C3.79035 6.48491 4.53197 6.81732 5.06953 7.35488C5.60709 7.89244 5.9395 8.63406 5.9395 9.45466V3.51516C5.9395 2.69456 5.60709 1.95294 5.06953 1.41538ZM3.9955 3.89145L2.38063 4.82396C2.091 4.99181 1.72787 4.78227 1.72787 4.44766V2.58266C1.72787 2.24805 2.091 2.03851 2.38063 2.20636L3.9955 3.13887C4.28513 3.30562 4.28513 3.7247 3.9955 3.89145Z" fill="#01DD86"/>
<path d="M8.25518 8.28915C8.14035 8.28915 8.03938 8.28123 7.95226 8.26539C7.86515 8.25351 7.78992 8.23965 7.72656 8.22381V7.47544C7.78992 7.49127 7.85723 7.50513 7.92851 7.51701C7.99582 7.52889 8.06907 7.53483 8.14827 7.53483C8.25122 7.53483 8.34427 7.51503 8.42742 7.47544C8.51454 7.43584 8.58185 7.36061 8.62937 7.24973C8.67688 7.13886 8.70064 6.98048 8.70064 6.77457V2.80105H9.5975V6.76864C9.5975 7.13292 9.54009 7.42594 9.42526 7.64768C9.31439 7.87338 9.15798 8.03573 8.95604 8.13472C8.7541 8.23767 8.52048 8.28915 8.25518 8.28915Z" fill="#01DD86"/>
<path d="M11.9321 3.73949C12.233 3.73949 12.4904 3.79691 12.7042 3.91174C12.922 4.02657 13.0903 4.19287 13.209 4.41065C13.3278 4.62844 13.3872 4.89571 13.3872 5.21249V5.64013H11.2965C11.3044 5.88959 11.3777 6.08559 11.5163 6.22814C11.6588 6.37069 11.8548 6.44196 12.1043 6.44196C12.3142 6.44196 12.5042 6.42216 12.6745 6.38257C12.8448 6.33901 13.021 6.27368 13.2031 6.18656V6.86961C13.0447 6.9488 12.8764 7.00622 12.6982 7.04185C12.524 7.08145 12.3122 7.10125 12.0627 7.10125C11.738 7.10125 11.451 7.04185 11.2015 6.92306C10.952 6.80031 10.756 6.61619 10.6135 6.37069C10.4709 6.12519 10.3997 5.81634 10.3997 5.44413C10.3997 5.064 10.463 4.74921 10.5897 4.49975C10.7204 4.24633 10.9006 4.05626 11.1302 3.92955C11.3599 3.80284 11.6272 3.73949 11.9321 3.73949ZM11.938 4.36908C11.7677 4.36908 11.6252 4.42451 11.5103 4.53538C11.3995 4.64625 11.3341 4.8185 11.3143 5.05212H12.5557C12.5517 4.85414 12.5003 4.69179 12.4013 4.56508C12.3023 4.43441 12.1479 4.36908 11.938 4.36908Z" fill="#01DD86"/>
<path d="M15.4412 3.73949C15.7422 3.73949 15.9995 3.79691 16.2134 3.91174C16.4311 4.02657 16.5994 4.19287 16.7182 4.41065C16.837 4.62844 16.8964 4.89571 16.8964 5.21249V5.64013H14.8057C14.8136 5.88959 14.8869 6.08559 15.0255 6.22814C15.168 6.37069 15.364 6.44196 15.6135 6.44196C15.8233 6.44196 16.0134 6.42216 16.1837 6.38257C16.3539 6.33901 16.5301 6.27368 16.7123 6.18656V6.86961C16.5539 6.9488 16.3856 7.00622 16.2074 7.04185C16.0332 7.08145 15.8214 7.10125 15.5719 7.10125C15.2472 7.10125 14.9601 7.04185 14.7107 6.92306C14.4612 6.80031 14.2652 6.61619 14.1227 6.37069C13.9801 6.12519 13.9088 5.81634 13.9088 5.44413C13.9088 5.064 13.9722 4.74921 14.0989 4.49975C14.2296 4.24633 14.4097 4.05626 14.6394 3.92955C14.8691 3.80284 15.1363 3.73949 15.4412 3.73949ZM15.4472 4.36908C15.2769 4.36908 15.1344 4.42451 15.0195 4.53538C14.9087 4.64625 14.8433 4.8185 14.8235 5.05212H16.0649C16.0609 4.85414 16.0094 4.69179 15.9105 4.56508C15.8115 4.43441 15.657 4.36908 15.4472 4.36908Z" fill="#01DD86"/>
<path d="M18.499 7.04185H17.614V2.52783H18.499V7.04185Z" fill="#01DD86"/>
<path d="M21.1283 7.04185H20.2315V3.54943H19.0792V2.80105H22.2806V3.54943H21.1283V7.04185Z" fill="#01DD86"/>
<path d="M23.7821 3.73949C24.083 3.73949 24.3404 3.79691 24.5542 3.91174C24.772 4.02657 24.9403 4.19287 25.059 4.41065C25.1778 4.62844 25.2372 4.89571 25.2372 5.21249V5.64013H23.1465C23.1544 5.88959 23.2277 6.08559 23.3663 6.22814C23.5088 6.37069 23.7048 6.44196 23.9543 6.44196C24.1642 6.44196 24.3542 6.42216 24.5245 6.38257C24.6948 6.33901 24.871 6.27368 25.0531 6.18656V6.86961C24.8947 6.9488 24.7264 7.00622 24.5482 7.04185C24.374 7.08145 24.1622 7.10125 23.9127 7.10125C23.588 7.10125 23.301 7.04185 23.0515 6.92306C22.802 6.80031 22.606 6.61619 22.4635 6.37069C22.3209 6.12519 22.2497 5.81634 22.2497 5.44413C22.2497 5.064 22.313 4.74921 22.4397 4.49975C22.5704 4.24633 22.7506 4.05626 22.9802 3.92955C23.2099 3.80284 23.4772 3.73949 23.7821 3.73949ZM23.788 4.36908C23.6177 4.36908 23.4752 4.42451 23.3603 4.53538C23.2495 4.64625 23.1841 4.8185 23.1643 5.05212H24.4057C24.4017 4.85414 24.3503 4.69179 24.2513 4.56508C24.1523 4.43441 23.9979 4.36908 23.788 4.36908Z" fill="#01DD86"/>
<path d="M27.2734 7.10125C26.9527 7.10125 26.6795 7.04383 26.4538 6.929C26.2281 6.81021 26.0558 6.62807 25.937 6.38257C25.8182 6.13707 25.7588 5.82227 25.7588 5.43819C25.7588 5.04222 25.8262 4.71951 25.9608 4.47005C26.0954 4.22059 26.2815 4.03647 26.5191 3.91768C26.7606 3.79888 27.0378 3.73949 27.3506 3.73949C27.5724 3.73949 27.7644 3.76127 27.9268 3.80482C28.0931 3.84838 28.2376 3.89986 28.3603 3.95925L28.099 4.64229C27.9604 4.58686 27.8297 4.54132 27.707 4.50569C27.5882 4.47005 27.4694 4.45223 27.3506 4.45223C27.1962 4.45223 27.0675 4.48985 26.9646 4.56508C26.8616 4.63635 26.7844 4.74525 26.7329 4.89175C26.6854 5.0343 26.6616 5.21447 26.6616 5.43225C26.6616 5.64607 26.6874 5.82425 26.7389 5.9668C26.7943 6.10539 26.8735 6.21032 26.9764 6.2816C27.0794 6.34891 27.2041 6.38257 27.3506 6.38257C27.5367 6.38257 27.7011 6.35881 27.8436 6.31129C27.9862 6.25982 28.1247 6.19052 28.2594 6.10341V6.85773C28.1247 6.94484 27.9822 7.00622 27.8317 7.04185C27.6852 7.08145 27.4991 7.10125 27.2734 7.10125Z" fill="#01DD86"/>
<path d="M29.8908 3.44845C29.8908 3.60684 29.8848 3.75929 29.873 3.9058C29.865 4.0523 29.8571 4.15526 29.8492 4.21465H29.8967C29.968 4.10378 30.0511 4.01469 30.1462 3.94737C30.2412 3.8761 30.3461 3.82462 30.461 3.79295C30.5798 3.75731 30.7045 3.73949 30.8352 3.73949C31.0688 3.73949 31.2727 3.78107 31.4469 3.86422C31.6212 3.94737 31.7558 4.07606 31.8508 4.25029C31.9498 4.42451 31.9993 4.65021 31.9993 4.92739V7.04185H31.1143V5.14715C31.1143 4.91353 31.0708 4.73931 30.9837 4.62448C30.9005 4.50569 30.7698 4.44629 30.5916 4.44629C30.3263 4.44629 30.1422 4.53934 30.0393 4.72545C29.9403 4.90759 29.8908 5.17091 29.8908 5.5154V7.04185H29.0058V2.52783H29.8908V3.44845Z" fill="#01DD86"/>
</svg>
