<svg width="175" height="48" viewBox="0 0 175 48" fill="none" xmlns="http://www.w3.org/2000/svg">
<path d="M27.3129 4.6871C24.4167 1.79091 20.4211 0 16 0C11.5789 0 7.5833 1.79091 4.68711 4.6871C1.79091 7.5833 0 11.5789 0 16C0 20.4211 1.79091 24.4167 4.68711 27.3129C7.5833 30.2091 11.5789 32 16 32C20.4211 32 24.4167 33.7909 27.3129 36.6871C30.2091 39.5833 32 43.5789 32 48V16C32 11.5789 30.2091 7.5833 27.3129 4.6871ZM21.5264 18.0273L12.826 23.0514C11.2656 23.9557 9.30919 22.8267 9.30919 21.024V10.976C9.30919 9.17325 11.2656 8.04433 12.826 8.94865L21.5264 13.9727C23.0868 14.8711 23.0868 17.1289 21.5264 18.0273Z" fill="#01DD86"/>
<path d="M44.48 41.72C43.8613 41.72 43.3173 41.6773 42.848 41.592C42.3787 41.528 41.9733 41.4533 41.632 41.368V37.336C41.9733 37.4213 42.336 37.496 42.72 37.56C43.0827 37.624 43.4773 37.656 43.904 37.656C44.4587 37.656 44.96 37.5493 45.408 37.336C45.8773 37.1227 46.24 36.7173 46.496 36.12C46.752 35.5227 46.88 34.6693 46.88 33.56V12.152H51.712V33.528C51.712 35.4907 51.4027 37.0693 50.784 38.264C50.1867 39.48 49.344 40.3547 48.256 40.888C47.168 41.4427 45.9093 41.72 44.48 41.72ZM64.2898 17.208C65.9111 17.208 67.2978 17.5173 68.4498 18.136C69.6231 18.7547 70.5298 19.6507 71.1698 20.824C71.8098 21.9973 72.1298 23.4373 72.1298 25.144V27.448H60.8658C60.9084 28.792 61.3031 29.848 62.0498 30.616C62.8178 31.384 63.8738 31.768 65.2178 31.768C66.3484 31.768 67.3724 31.6613 68.2898 31.448C69.2071 31.2133 70.1564 30.8613 71.1378 30.392V34.072C70.2844 34.4987 69.3778 34.808 68.4178 35C67.4791 35.2133 66.3378 35.32 64.9938 35.32C63.2444 35.32 61.6978 35 60.3538 34.36C59.0098 33.6987 57.9538 32.7067 57.1858 31.384C56.4178 30.0613 56.0338 28.3973 56.0338 26.392C56.0338 24.344 56.3751 22.648 57.0578 21.304C57.7618 19.9387 58.7324 18.9147 59.9698 18.232C61.2071 17.5493 62.6471 17.208 64.2898 17.208ZM64.3218 20.6C63.4044 20.6 62.6364 20.8987 62.0178 21.496C61.4204 22.0933 61.0684 23.0213 60.9618 24.28H67.6498C67.6284 23.2133 67.3511 22.3387 66.8178 21.656C66.2844 20.952 65.4524 20.6 64.3218 20.6ZM83.196 17.208C84.8173 17.208 86.204 17.5173 87.356 18.136C88.5293 18.7547 89.436 19.6507 90.076 20.824C90.716 21.9973 91.036 23.4373 91.036 25.144V27.448H79.772C79.8147 28.792 80.2093 29.848 80.956 30.616C81.724 31.384 82.78 31.768 84.124 31.768C85.2547 31.768 86.2787 31.6613 87.196 31.448C88.1133 31.2133 89.0627 30.8613 90.044 30.392V34.072C89.1907 34.4987 88.284 34.808 87.324 35C86.3853 35.2133 85.244 35.32 83.9 35.32C82.1507 35.32 80.604 35 79.26 34.36C77.916 33.6987 76.86 32.7067 76.092 31.384C75.324 30.0613 74.94 28.3973 74.94 26.392C74.94 24.344 75.2813 22.648 75.964 21.304C76.668 19.9387 77.6387 18.9147 78.876 18.232C80.1133 17.5493 81.5533 17.208 83.196 17.208ZM83.228 20.6C82.3107 20.6 81.5427 20.8987 80.924 21.496C80.3267 22.0933 79.9747 23.0213 79.868 24.28H86.556C86.5347 23.2133 86.2573 22.3387 85.724 21.656C85.1907 20.952 84.3587 20.6 83.228 20.6ZM99.6703 35H94.9023V10.68H99.6703V35ZM113.836 35H109.004V16.184H102.796V12.152H120.044V16.184H113.836V35ZM128.134 17.208C129.755 17.208 131.142 17.5173 132.294 18.136C133.467 18.7547 134.374 19.6507 135.014 20.824C135.654 21.9973 135.974 23.4373 135.974 25.144V27.448H124.71C124.752 28.792 125.147 29.848 125.894 30.616C126.662 31.384 127.718 31.768 129.062 31.768C130.192 31.768 131.216 31.6613 132.134 31.448C133.051 31.2133 134 30.8613 134.982 30.392V34.072C134.128 34.4987 133.222 34.808 132.262 35C131.323 35.2133 130.182 35.32 128.838 35.32C127.088 35.32 125.542 35 124.198 34.36C122.854 33.6987 121.798 32.7067 121.03 31.384C120.262 30.0613 119.878 28.3973 119.878 26.392C119.878 24.344 120.219 22.648 120.902 21.304C121.606 19.9387 122.576 18.9147 123.814 18.232C125.051 17.5493 126.491 17.208 128.134 17.208ZM128.166 20.6C127.248 20.6 126.48 20.8987 125.862 21.496C125.264 22.0933 124.912 23.0213 124.806 24.28H131.494C131.472 23.2133 131.195 22.3387 130.662 21.656C130.128 20.952 129.296 20.6 128.166 20.6ZM146.944 35.32C145.216 35.32 143.744 35.0107 142.528 34.392C141.312 33.752 140.384 32.7707 139.744 31.448C139.104 30.1253 138.784 28.4293 138.784 26.36C138.784 24.2267 139.146 22.488 139.872 21.144C140.597 19.8 141.6 18.808 142.88 18.168C144.181 17.528 145.674 17.208 147.36 17.208C148.554 17.208 149.589 17.3253 150.464 17.56C151.36 17.7947 152.138 18.072 152.8 18.392L151.392 22.072C150.645 21.7733 149.941 21.528 149.28 21.336C148.64 21.144 148 21.048 147.36 21.048C146.528 21.048 145.834 21.2507 145.28 21.656C144.725 22.04 144.309 22.6267 144.032 23.416C143.776 24.184 143.648 25.1547 143.648 26.328C143.648 27.48 143.786 28.44 144.064 29.208C144.362 29.9547 144.789 30.52 145.344 30.904C145.898 31.2667 146.57 31.448 147.36 31.448C148.362 31.448 149.248 31.32 150.016 31.064C150.784 30.7867 151.53 30.4133 152.256 29.944V34.008C151.53 34.4773 150.762 34.808 149.952 35C149.162 35.2133 148.16 35.32 146.944 35.32ZM161.045 15.64C161.045 16.4933 161.013 17.3147 160.949 18.104C160.907 18.8933 160.864 19.448 160.821 19.768H161.077C161.461 19.1707 161.909 18.6907 162.421 18.328C162.933 17.944 163.499 17.6667 164.117 17.496C164.757 17.304 165.429 17.208 166.133 17.208C167.392 17.208 168.491 17.432 169.429 17.88C170.368 18.328 171.093 19.0213 171.605 19.96C172.139 20.8987 172.405 22.1147 172.405 23.608V35H167.637V24.792C167.637 23.5333 167.403 22.5947 166.933 21.976C166.485 21.336 165.781 21.016 164.821 21.016C163.392 21.016 162.4 21.5173 161.845 22.52C161.312 23.5013 161.045 24.92 161.045 26.776V35H156.277V10.68H161.045V15.64Z" fill="#01DD86"/>
</svg>
